<svg width="48" height="48" viewBox="0 0 48 48" fill="none" xmlns="http://www.w3.org/2000/svg">
<path d="M18.1484 32.5004L23.9984 28.9504L29.8484 32.5004L28.2984 25.8504L33.4984 21.3504L26.6484 20.8004L23.9984 14.5004L21.3484 20.8004L14.4984 21.3504L19.6984 25.8504L18.1484 32.5004ZM23.9984 46.6004L17.2984 40.0004H7.99844V30.7004L1.39844 24.0004L7.99844 17.3004V8.00039H17.2984L23.9984 1.40039L30.6984 8.00039H39.9984V17.3004L46.5984 24.0004L39.9984 30.7004V40.0004H30.6984L23.9984 46.6004ZM23.9984 41.0004L28.9984 36.0004H35.9984V29.0004L40.9984 24.0004L35.9984 19.0004V12.0004H28.9984L23.9984 7.00039L18.9984 12.0004H11.9984V19.0004L6.99844 24.0004L11.9984 29.0004V36.0004H18.9984L23.9984 41.0004Z" fill="#38BDF8"/>
</svg>
