<svg width="48" height="48" viewBox="0 0 48 48" fill="none" xmlns="http://www.w3.org/2000/svg">
<rect width="48" height="48" rx="24" fill="#38BDF8"/>
<path d="M15.12 30V18.48H19.776C19.888 18.48 20.0267 18.4853 20.192 18.496C20.3573 18.5013 20.5147 18.5173 20.664 18.544C21.304 18.6453 21.8373 18.864 22.264 19.2C22.696 19.536 23.0187 19.96 23.232 20.472C23.4453 20.984 23.552 21.5493 23.552 22.168C23.552 22.792 23.4453 23.36 23.232 23.872C23.0187 24.384 22.696 24.808 22.264 25.144C21.8373 25.48 21.304 25.6987 20.664 25.8C20.5147 25.8213 20.3547 25.8373 20.184 25.848C20.0187 25.8587 19.8827 25.864 19.776 25.864H16.792V30H15.12ZM16.792 24.28H19.712C19.8187 24.28 19.936 24.2747 20.064 24.264C20.1973 24.2533 20.3227 24.2347 20.44 24.208C20.7813 24.128 21.056 23.9813 21.264 23.768C21.472 23.5493 21.6213 23.2987 21.712 23.016C21.8027 22.7333 21.848 22.4507 21.848 22.168C21.848 21.8853 21.8027 21.6053 21.712 21.328C21.6213 21.0453 21.472 20.7973 21.264 20.584C21.056 20.3653 20.7813 20.216 20.44 20.136C20.3227 20.104 20.1973 20.0827 20.064 20.072C19.936 20.0613 19.8187 20.056 19.712 20.056H16.792V24.28ZM28.1753 31.592V29.72H29.8473V31.592H28.1753ZM28.1753 18.768V16.888H29.8473V18.768H28.1753ZM29.0953 30.24C28.2953 30.24 27.5806 30.096 26.9513 29.808C26.3219 29.52 25.8046 29.112 25.3993 28.584C24.9993 28.0507 24.7379 27.4213 24.6153 26.696L26.2713 26.432C26.4313 27.1147 26.7726 27.6587 27.2953 28.064C27.8179 28.464 28.4446 28.664 29.1753 28.664C29.9006 28.664 30.4899 28.4907 30.9433 28.144C31.4019 27.7973 31.6313 27.3547 31.6313 26.816C31.6313 26.432 31.5139 26.12 31.2793 25.88C31.0499 25.64 30.6739 25.4373 30.1513 25.272L27.4473 24.44C25.8473 23.944 25.0473 22.984 25.0473 21.56C25.0473 20.888 25.2073 20.304 25.5273 19.808C25.8526 19.312 26.3086 18.928 26.8953 18.656C27.4819 18.384 28.1673 18.248 28.9513 18.248C29.7033 18.2587 30.3699 18.3973 30.9513 18.664C31.5379 18.9307 32.0233 19.3147 32.4073 19.816C32.7966 20.3173 33.0659 20.92 33.2153 21.624L31.5113 21.928C31.4366 21.5173 31.2793 21.1547 31.0393 20.84C30.8046 20.5253 30.5059 20.28 30.1433 20.104C29.7859 19.928 29.3833 19.8373 28.9353 19.832C28.5139 19.8213 28.1353 19.888 27.7993 20.032C27.4686 20.1707 27.2046 20.368 27.0073 20.624C26.8153 20.8747 26.7193 21.16 26.7193 21.48C26.7193 21.832 26.8553 22.1307 27.1273 22.376C27.3993 22.6213 27.8286 22.832 28.4153 23.008L30.5353 23.624C31.5059 23.912 32.2073 24.2987 32.6393 24.784C33.0713 25.2693 33.2873 25.9147 33.2873 26.72C33.2873 27.424 33.1113 28.04 32.7593 28.568C32.4126 29.0907 31.9246 29.5013 31.2953 29.8C30.6659 30.0933 29.9326 30.24 29.0953 30.24Z" fill="#212121"/>
</svg>
