<svg width="198" height="58" viewBox="0 0 198 58" fill="none" xmlns="http://www.w3.org/2000/svg">
<path d="M4.70189 35.1383C3.73916 22.8352 11.8132 11.9169 23.7557 9.26634C24.5234 9.09595 24.8674 8.81834 24.8327 7.99726C24.778 6.70257 24.7949 5.40305 24.829 4.10682C24.8874 1.88827 26.5052 0.152238 28.6029 0.0106027C30.7688 -0.135647 32.657 1.24262 32.9857 3.43108C33.1987 4.84891 33.1767 6.31573 33.1224 7.75541C33.0835 8.78397 33.4011 9.19623 34.4422 9.44973C44.6368 11.932 51.531 19.4052 53.1466 29.7871C53.6887 33.2705 53.4127 36.7504 52.3461 40.1395C52.2131 40.562 52.0837 40.9856 51.9288 41.4856C53.2798 42.3043 54.6296 43.0447 55.8956 43.9082C57.6267 45.0891 58.1591 46.8751 57.4621 48.753C56.5942 51.0916 54.2575 52.1221 51.9983 51.0634C50.5603 50.3895 49.1977 49.5549 48.0983 48.9546C45.5403 50.8502 43.2583 52.8819 40.6731 54.396C31.2558 59.9115 18.3529 57.8097 11.1366 49.6783C10.3428 48.7839 9.81255 48.7842 8.91818 49.3541C7.87131 50.0213 6.78274 50.6535 5.64291 51.1375C3.61721 51.9978 1.59041 51.2143 0.551599 49.2956C-0.48454 47.3819 -0.0449823 45.2111 1.73572 43.9991C3.08632 43.0798 4.52717 42.2931 5.85023 41.4943C5.46037 39.3626 5.08648 37.3183 4.70189 35.1383ZM33.1439 19.9008C33.0235 22.5641 33.8452 25.4918 30.8266 27.3674C33.7807 28.5845 34.9163 30.8256 35.013 33.6045C39.8995 32.9554 42.6947 37.1391 46.6956 38.3048C50.3931 27.9792 42.3762 16.3488 33.1439 15.4256C33.1439 16.8252 33.1439 18.2141 33.1439 19.9008ZM16.8361 19.0691C10.6018 24.3414 9.16956 33.426 11.5073 38.2652C13.4983 37.1332 15.5192 36.0561 17.4644 34.8564C19.1602 33.8104 20.8527 32.9923 22.9882 33.8854C22.8546 30.6364 24.3275 28.5988 27.1459 27.3335C25.2211 26.1589 24.7215 24.4606 24.7994 22.4191C24.89 20.0413 24.8204 17.6574 24.8204 15.1065C21.7327 15.7051 19.2395 17.0533 16.8361 19.0691M24.2193 40.2015C23.717 40.5998 23.2512 41.0588 22.7062 41.3859C20.3369 42.8083 17.9445 44.1923 15.5394 45.6026C22.6607 53.8559 36.2553 53.0435 42.2998 45.5914C41.173 44.9434 40.0157 44.375 38.9637 43.6532C36.5871 42.0228 33.2551 41.5081 32.5434 37.9799C29.9685 39.3641 27.6052 39.3975 25.334 37.8509C24.9951 38.5968 24.6707 39.3106 24.2193 40.202M26.2019 22.9978C26.4802 25.2164 27.4834 26.333 29.114 26.2391C30.6504 26.1507 31.6787 25.0858 31.6886 23.3237C31.7242 16.9972 31.737 10.6698 31.649 4.34428C31.6379 3.56221 31.1648 2.47189 30.5536 2.09436C29.8269 1.64539 28.6577 1.56015 27.7917 1.77224C26.5216 2.0833 26.1915 3.26496 26.1927 4.50626C26.1989 10.5812 26.1952 16.6562 26.2014 22.9978M3.82015 44.3666C1.60494 45.5947 0.904015 47.0379 1.75334 48.6222C2.65257 50.2995 4.25622 50.4883 6.49094 49.2025C9.33669 47.5651 12.191 45.9426 15.0405 44.3116C17.3733 42.9763 19.7295 41.6795 22.0278 40.2871C23.7069 39.2698 24.1016 37.7119 23.2053 36.2121C22.4073 34.8769 20.9169 34.5666 19.2851 35.4969C14.1857 38.4044 9.10514 41.345 3.82015 44.3666ZM52.8672 43.6569C51.6851 43.0198 50.4868 42.4107 49.3238 41.7404C45.7022 39.6533 42.1038 37.5258 38.4756 35.4503C37.0528 34.6363 35.7612 34.8383 34.814 35.8999C33.5024 37.3699 33.9992 39.18 36.1235 40.4132C39.4367 42.3367 42.7802 44.2079 46.103 46.115C48.1748 47.3041 50.2018 48.5752 52.3066 49.7017C53.733 50.4651 55.2364 50.0114 55.98 48.7868C56.7575 47.5065 56.4075 45.8854 55.1095 44.9858C54.4571 44.5336 53.7448 44.1678 52.8672 43.6569ZM38.8958 53.7175C41.6942 52.2918 44.2602 50.5732 46.3238 47.9625C45.4109 47.4535 44.6398 47.0236 43.7808 46.5447C39.6816 50.6463 34.7989 52.9854 28.9738 52.9575C23.1528 52.9297 18.2377 50.6852 14.1953 46.3888C13.3006 46.9144 12.4547 47.4114 11.357 48.0563C12.353 48.9685 13.1509 49.7919 14.0409 50.4997C21.5931 56.5064 29.8257 57.5607 38.8958 53.7175ZM48.6246 29.4411C48.5823 32.0144 48.7899 34.6258 48.4065 37.1473C48.1656 38.7311 48.1841 39.6971 49.7808 40.2438C50.0461 40.3346 50.2886 40.492 50.5489 40.6222C55.8144 27.2867 45.8705 12.3083 33.3689 10.7874C32.9508 13.4343 32.966 13.3916 35.3447 14.2372C42.499 16.7806 46.8773 21.7987 48.6246 29.4411ZM19.539 12.1941C7.25298 17.8864 3.65047 31.5907 7.41385 40.5082C7.72737 40.3685 8.03316 40.2118 8.35311 40.0933C9.62248 39.6232 10.0454 38.8741 9.58376 37.4832C9.21414 36.3695 9.08928 35.1419 9.04581 33.9579C8.70145 24.5774 14.5372 16.5418 23.5904 13.9538C24.55 13.6794 24.9144 13.2528 24.8092 12.2982C24.752 11.7798 24.7992 11.25 24.7992 10.4029C22.9217 11.0281 21.3306 11.5579 19.5392 12.1941M32.9029 30.7859C31.2017 28.5364 28.7061 27.8881 26.6487 29.1611C24.5056 30.4872 23.7807 33.1418 24.978 35.2787C26.1759 37.4168 28.6951 38.2246 30.8979 37.1769C33.2593 36.0539 34.0919 33.6078 32.9029 30.7859Z" fill="white"/>
<path d="M92.8127 20.1254C93.6154 21.7442 94.0167 23.5463 94.0167 25.5316C94.0167 27.5169 93.6154 29.319 92.8127 30.9378C92.01 32.526 90.9757 33.7936 89.7099 34.7404C87.1474 36.6952 84.4923 37.6726 81.7445 37.6726H75.9557V42.8497C75.9557 43.5522 75.9249 44.0867 75.8631 44.4532C75.8322 44.7892 75.6933 45.1863 75.4463 45.6444C75.0141 46.4691 73.81 46.8815 71.8341 46.8815C69.6729 46.8815 68.4071 46.3164 68.0366 45.1863C67.8514 44.667 67.7588 43.8729 67.7588 42.8039V17.3765C67.7588 16.674 67.7742 16.1547 67.8051 15.8187C67.8668 15.4522 68.0212 15.0399 68.2682 14.5817C68.7004 13.7571 69.9045 13.3447 71.8804 13.3447H81.7908C84.5076 13.3447 87.1473 14.3221 89.7098 16.2769C90.9756 17.2237 92.0099 18.5066 92.8126 20.1254H92.8127ZM81.7909 29.5633C82.7171 29.5633 83.6278 29.2273 84.5231 28.5554C85.4185 27.8834 85.8661 26.8755 85.8661 25.5316C85.8661 24.1877 85.4185 23.1797 84.5231 22.5078C83.6278 21.8053 82.7016 21.454 81.7445 21.454H75.9557V29.5633H81.7909Z" fill="white"/>
<path d="M96.1012 26.8159C96.1012 26.1134 96.1166 25.5942 96.1474 25.2582C96.2092 24.8917 96.3481 24.4794 96.5642 24.0212C96.9964 23.2271 98.2005 22.83 100.176 22.83C101.658 22.83 102.708 23.0896 103.326 23.6089C103.85 24.0365 104.128 24.6932 104.159 25.579C104.19 25.8844 104.205 26.3273 104.205 26.9076V42.9429C104.205 43.6454 104.174 44.1799 104.113 44.5464C104.082 44.8824 103.943 45.2795 103.696 45.7376C103.295 46.5318 102.106 46.9288 100.13 46.9288C98.185 46.9288 96.9964 46.5165 96.5641 45.6918C96.348 45.2337 96.2091 44.8366 96.1473 44.5006C96.1165 44.1646 96.1011 43.6301 96.1011 42.8971L96.1012 26.8159ZM103.696 18.3402C103.48 18.7678 103.079 19.0732 102.492 19.2565C101.905 19.4397 101.118 19.5313 100.13 19.5313C99.1731 19.5313 98.4012 19.4397 97.8147 19.2565C97.228 19.0732 96.8112 18.7525 96.5643 18.2943C96.3481 17.8362 96.2092 17.4391 96.1475 17.1031C96.1166 16.7366 96.1012 16.2021 96.1012 15.4996C96.1012 14.7971 96.1166 14.2779 96.1475 13.9419C96.2092 13.5754 96.3482 13.1783 96.5643 12.7507C96.9965 11.926 98.2006 11.5137 100.176 11.5137C102.121 11.5137 103.295 11.926 103.696 12.7507C103.943 13.2088 104.082 13.6212 104.113 13.9877C104.175 14.3237 104.205 14.8429 104.205 15.5454C104.205 16.2479 104.175 16.7824 104.113 17.1489C104.082 17.4849 103.943 17.882 103.696 18.3402Z" fill="white"/>
<path d="M107.908 15.4526C107.908 14.7501 107.923 14.2309 107.954 13.8949C108.016 13.5284 108.155 13.116 108.371 12.6579C108.803 11.8332 110.007 11.4209 111.983 11.4209C113.866 11.4209 115.039 11.8332 115.503 12.6579C115.75 13.116 115.888 13.5284 115.919 13.8949C115.981 14.2614 116.012 14.7959 116.012 15.4984V36.7109C116.012 37.8104 116.105 38.5129 116.29 38.8184C116.475 39.0933 116.876 39.2307 117.494 39.2307C118.142 39.2307 118.575 39.2613 118.791 39.3224C119.007 39.3529 119.269 39.4751 119.578 39.6889C120.195 40.086 120.504 41.1703 120.504 42.9418C120.504 44.866 120.195 46.042 119.578 46.4696C118.775 47.0193 116.861 47.111 113.835 46.7444C111.458 46.439 109.914 45.6601 109.204 44.4079C108.34 42.9112 107.908 40.5288 107.908 37.2607V15.4526Z" fill="white"/>
<path d="M122.356 34.8789C122.356 31.2137 123.653 28.1899 126.246 25.8075C128.839 23.4251 131.803 22.2339 135.138 22.2339C138.472 22.2339 141.42 23.4251 143.983 25.8075C146.545 28.1593 147.827 31.1679 147.827 34.8331C147.827 37.3682 147.163 39.6284 145.835 41.6137C144.508 43.5685 142.887 45.0193 140.973 45.9662C139.089 46.8825 137.129 47.3406 135.091 47.3406C133.054 47.3406 131.078 46.8519 129.164 45.8745C127.249 44.8666 125.629 43.4005 124.301 41.4763C123.004 39.5215 122.356 37.3224 122.356 34.8789ZM132.035 38.1776C133.023 38.9106 134.026 39.2771 135.045 39.2771C136.064 39.2771 137.083 38.8953 138.101 38.1318C139.12 37.3682 139.63 36.2381 139.63 34.7414C139.63 33.2448 139.151 32.13 138.194 31.3969C137.237 30.6639 136.203 30.2974 135.091 30.2974C133.98 30.2974 132.946 30.6792 131.988 31.4427C131.031 32.2063 130.553 33.3364 130.553 34.8331C130.553 36.2992 131.047 37.414 132.035 38.1776Z" fill="white"/>
<path d="M150.84 53.4794V26.7233C150.84 26.0208 150.855 25.5016 150.886 25.1656C150.948 24.8296 151.087 24.4478 151.303 24.0202C151.735 23.1955 152.769 22.7832 154.406 22.7832C156.042 22.7832 157.138 22.997 157.694 23.4246C158.28 23.8217 158.62 24.4173 158.713 25.2114C159.886 23.6231 161.723 22.829 164.224 22.829C166.755 22.829 169.148 24.0049 171.402 26.3568C173.655 28.7086 174.782 31.4423 174.782 34.5577C174.782 37.6731 173.655 40.4068 171.402 42.7586C169.179 45.1105 166.801 46.2864 164.27 46.2864C161.738 46.2864 159.901 45.5839 158.759 44.1789V53.4336C158.759 54.1361 158.728 54.6553 158.666 54.9913C158.635 55.3273 158.496 55.7091 158.249 56.1367C158.033 56.5948 157.647 56.9155 157.092 57.0988C156.536 57.2821 155.78 57.3737 154.822 57.3737C153.865 57.3737 153.094 57.2821 152.507 57.0988C151.951 56.9155 151.55 56.6101 151.303 56.1825C151.087 55.7549 150.948 55.3731 150.886 55.0371C150.855 54.7011 150.84 54.1819 150.84 53.4794H150.84ZM160.009 31.9004C159.299 32.7251 158.944 33.6261 158.944 34.6035C158.944 35.5809 159.299 36.4819 160.009 37.3066C160.75 38.1007 161.676 38.4978 162.788 38.4978C163.93 38.4978 164.887 38.1007 165.659 37.3066C166.462 36.5125 166.863 35.6115 166.863 34.6035C166.863 33.5956 166.493 32.6946 165.752 31.9004C165.011 31.0758 164.038 30.6634 162.834 30.6634C161.661 30.6634 160.719 31.0758 160.009 31.9004Z" fill="white"/>
<path d="M177.977 44.7737C177.39 44.4071 177.097 43.8268 177.097 43.0327C177.097 42.2386 177.684 41.0321 178.857 39.4133C179.197 38.894 179.737 38.6344 180.478 38.6344C181.25 38.6344 182.284 39.0162 183.581 39.7798C184.877 40.5128 186.05 40.8794 187.1 40.8794C188.983 40.8794 189.925 40.5128 189.925 39.7798C189.925 39.1995 188.891 38.7719 186.822 38.497C184.877 38.2221 182.948 37.5043 181.034 36.3436C180.138 35.7939 179.397 34.9387 178.811 33.778C178.224 32.5868 177.931 31.1818 177.931 29.563C177.931 24.7372 181.281 22.3242 187.98 22.3242C190.172 22.3242 192.426 22.8435 194.741 23.8819C195.822 24.3706 196.362 24.9815 196.362 25.7145C196.362 26.4476 196.023 27.3486 195.343 28.4176C194.664 29.4866 193.97 30.0212 193.259 30.0212C192.889 30.0212 192.194 29.7921 191.175 29.3339C190.188 28.8758 189.107 28.6467 187.934 28.6467C186.112 28.6467 185.201 28.9827 185.201 29.6546C185.201 30.5709 186.251 31.1665 188.351 31.4414C190.388 31.6552 192.364 32.2356 194.278 33.1824C195.174 33.61 195.915 34.3583 196.501 35.4274C197.119 36.4658 197.427 37.7792 197.427 39.3675C197.427 40.9557 197.119 42.3149 196.501 43.445C195.915 44.5446 195.081 45.3693 194 45.919C192.025 46.8659 189.539 47.3393 186.544 47.3393C183.581 47.3393 180.725 46.4841 177.977 44.7737Z" fill="white"/>
</svg>
