<svg width="58" height="58" viewBox="0 0 58 58" fill="none" xmlns="http://www.w3.org/2000/svg">
<path d="M4.70189 35.1383C3.73916 22.8352 11.8132 11.9169 23.7557 9.26634C24.5234 9.09595 24.8674 8.81834 24.8327 7.99726C24.778 6.70257 24.7949 5.40305 24.829 4.10682C24.8874 1.88827 26.5052 0.152238 28.6029 0.0106027C30.7688 -0.135647 32.657 1.24262 32.9857 3.43108C33.1987 4.84891 33.1767 6.31573 33.1224 7.75541C33.0835 8.78397 33.4011 9.19623 34.4422 9.44973C44.6368 11.932 51.531 19.4052 53.1466 29.7871C53.6887 33.2705 53.4127 36.7504 52.3461 40.1395C52.2131 40.562 52.0837 40.9856 51.9288 41.4856C53.2798 42.3043 54.6296 43.0447 55.8956 43.9082C57.6267 45.0891 58.1591 46.8751 57.4621 48.753C56.5942 51.0916 54.2575 52.1221 51.9983 51.0634C50.5603 50.3895 49.1977 49.5549 48.0983 48.9546C45.5403 50.8502 43.2583 52.8819 40.6731 54.396C31.2558 59.9115 18.3529 57.8097 11.1366 49.6783C10.3428 48.7839 9.81255 48.7842 8.91818 49.3541C7.87131 50.0213 6.78274 50.6535 5.64291 51.1375C3.61721 51.9978 1.59041 51.2143 0.551599 49.2956C-0.48454 47.3819 -0.0449823 45.2111 1.73572 43.9991C3.08632 43.0798 4.52717 42.2931 5.85023 41.4943C5.46037 39.3626 5.08648 37.3183 4.70189 35.1383ZM33.1439 19.9008C33.0235 22.5641 33.8452 25.4918 30.8266 27.3674C33.7807 28.5845 34.9163 30.8256 35.013 33.6045C39.8995 32.9554 42.6947 37.1391 46.6956 38.3048C50.3931 27.9792 42.3762 16.3488 33.1439 15.4256C33.1439 16.8252 33.1439 18.2141 33.1439 19.9008ZM16.8361 19.0691C10.6018 24.3414 9.16956 33.426 11.5073 38.2652C13.4983 37.1332 15.5192 36.0561 17.4644 34.8564C19.1602 33.8104 20.8527 32.9923 22.9882 33.8854C22.8546 30.6364 24.3275 28.5988 27.1459 27.3335C25.2211 26.1589 24.7215 24.4606 24.7994 22.4191C24.89 20.0413 24.8204 17.6574 24.8204 15.1065C21.7327 15.7051 19.2395 17.0533 16.8361 19.0691M24.2193 40.2015C23.717 40.5998 23.2512 41.0588 22.7062 41.3859C20.3369 42.8083 17.9445 44.1923 15.5394 45.6026C22.6607 53.8559 36.2553 53.0435 42.2998 45.5914C41.173 44.9434 40.0157 44.375 38.9637 43.6532C36.5871 42.0228 33.2551 41.5081 32.5434 37.9799C29.9685 39.3641 27.6052 39.3975 25.334 37.8509C24.9951 38.5968 24.6707 39.3106 24.2193 40.202M26.2019 22.9978C26.4802 25.2164 27.4834 26.333 29.114 26.2391C30.6504 26.1507 31.6787 25.0858 31.6886 23.3237C31.7242 16.9972 31.737 10.6698 31.649 4.34428C31.6379 3.56221 31.1648 2.47189 30.5536 2.09436C29.8269 1.64539 28.6577 1.56015 27.7917 1.77224C26.5216 2.0833 26.1915 3.26496 26.1927 4.50626C26.1989 10.5812 26.1952 16.6562 26.2014 22.9978M3.82015 44.3666C1.60494 45.5947 0.904015 47.0379 1.75334 48.6222C2.65257 50.2995 4.25622 50.4883 6.49094 49.2025C9.33669 47.5651 12.191 45.9426 15.0405 44.3116C17.3733 42.9763 19.7295 41.6795 22.0278 40.2871C23.7069 39.2698 24.1016 37.7119 23.2053 36.2121C22.4073 34.8769 20.9169 34.5666 19.2851 35.4969C14.1857 38.4044 9.10514 41.345 3.82015 44.3666ZM52.8672 43.6569C51.6851 43.0198 50.4868 42.4107 49.3238 41.7404C45.7022 39.6533 42.1038 37.5258 38.4756 35.4503C37.0528 34.6363 35.7612 34.8383 34.814 35.8999C33.5024 37.3699 33.9992 39.18 36.1235 40.4132C39.4367 42.3367 42.7802 44.2079 46.103 46.115C48.1748 47.3041 50.2018 48.5752 52.3066 49.7017C53.733 50.4651 55.2364 50.0114 55.98 48.7868C56.7575 47.5065 56.4075 45.8854 55.1095 44.9858C54.4571 44.5336 53.7448 44.1678 52.8672 43.6569ZM38.8958 53.7175C41.6942 52.2918 44.2602 50.5732 46.3238 47.9625C45.4109 47.4535 44.6398 47.0236 43.7808 46.5447C39.6816 50.6463 34.7989 52.9854 28.9738 52.9575C23.1528 52.9297 18.2377 50.6852 14.1953 46.3888C13.3006 46.9144 12.4547 47.4114 11.357 48.0563C12.353 48.9685 13.1509 49.7919 14.0409 50.4997C21.5931 56.5064 29.8257 57.5607 38.8958 53.7175ZM48.6246 29.4411C48.5823 32.0144 48.7899 34.6258 48.4065 37.1473C48.1656 38.7311 48.1841 39.6971 49.7808 40.2438C50.0461 40.3346 50.2886 40.492 50.5489 40.6222C55.8144 27.2867 45.8705 12.3083 33.3689 10.7874C32.9508 13.4343 32.966 13.3916 35.3447 14.2372C42.499 16.7806 46.8773 21.7987 48.6246 29.4411ZM19.539 12.1941C7.25298 17.8864 3.65047 31.5907 7.41385 40.5082C7.72737 40.3685 8.03316 40.2118 8.35311 40.0933C9.62248 39.6232 10.0454 38.8741 9.58376 37.4832C9.21414 36.3695 9.08928 35.1419 9.04581 33.9579C8.70145 24.5774 14.5372 16.5418 23.5904 13.9538C24.55 13.6794 24.9144 13.2528 24.8092 12.2982C24.752 11.7798 24.7992 11.25 24.7992 10.4029C22.9217 11.0281 21.3306 11.5579 19.5392 12.1941M32.9029 30.7859C31.2017 28.5364 28.7061 27.8881 26.6487 29.1611C24.5056 30.4872 23.7807 33.1418 24.978 35.2787C26.1759 37.4168 28.6951 38.2246 30.8979 37.1769C33.2593 36.0539 34.0919 33.6078 32.9029 30.7859Z" fill="white"/>
</svg>
